<?xml version="1.0" encoding="UTF-8"?>
<svg xmlns="http://www.w3.org/2000/svg" xmlns:xlink="http://www.w3.org/1999/xlink" width="5001" height="5001" viewBox="0 0 5001 5001">
<path fill-rule="evenodd" fill="rgb(100%, 100%, 100%)" fill-opacity="1" d="M 2518.121094 474.21875 C 3647.96875 474.21875 4565.269531 1391.519531 4565.269531 2521.371094 C 4565.269531 3651.21875 3647.96875 4568.519531 2518.121094 4568.519531 C 1388.269531 4568.519531 470.972656 3651.21875 470.972656 2521.371094 C 470.972656 1391.519531 1388.269531 474.21875 2518.121094 474.21875 "/>
<path fill-rule="nonzero" fill="rgb(73.046875%, 73.046875%, 73.046875%)" fill-opacity="1" d="M 2364.199219 4018.390625 L 2355.839844 4049.207031 L 2294.269531 4032.320312 L 2302.628906 4001.609375 L 2546.160156 3111.621094 L 2554.578125 3080.808594 L 2616.148438 3097.699219 L 2607.730469 3128.5 L 2364.199219 4018.390625 "/>
<path fill-rule="nonzero" fill="rgb(73.046875%, 73.046875%, 73.046875%)" fill-opacity="1" d="M 1656.96875 4176.375 L 1678.519531 4199.984375 L 1631.230469 4242.917969 L 1609.699219 4219.308594 L 747.597656 3271.808594 L 726.046875 3248.199219 L 773.335938 3205.210938 L 794.816406 3228.820312 L 1656.96875 4176.375 "/>
<path fill-rule="nonzero" fill="rgb(73.046875%, 73.046875%, 73.046875%)" fill-opacity="1" d="M 1896.039062 2448.421875 L 1927.5 2442.96875 L 1938.449219 2505.820312 L 1906.949219 2511.261719 L 1072.761719 2656.121094 L 1041.371094 2661.621094 L 1030.410156 2598.671875 L 1061.921875 2593.21875 L 1896.039062 2448.421875 "/>
<path fill-rule="nonzero" fill="rgb(73.046875%, 73.046875%, 73.046875%)" fill-opacity="1" d="M 4035.671875 3224.648438 L 4061.28125 3243.539062 L 4023.429688 3294.949219 L 3997.699219 3276 L 3433.671875 2859.890625 L 3407.941406 2840.980469 L 3445.898438 2789.570312 L 3471.511719 2808.53125 L 4035.671875 3224.648438 "/>
<path fill-rule="nonzero" fill="rgb(73.046875%, 73.046875%, 73.046875%)" fill-opacity="1" d="M 3878.53125 3884.929688 L 3907.808594 3872.269531 L 3933.058594 3930.878906 L 3903.78125 3943.480469 L 2854.378906 4396.8125 L 2825 4409.472656 L 2799.75 4350.867188 L 2829.019531 4338.15625 L 3878.53125 3884.929688 "/>
<path fill-rule="nonzero" fill="rgb(73.046875%, 73.046875%, 73.046875%)" fill-opacity="1" d="M 3577.511719 801.171875 L 3608.421875 808.898438 L 3592.808594 870.828125 L 3561.878906 863.109375 L 2398.25 569.921875 L 2367.328125 562.191406 L 2382.890625 500.238281 L 2413.820312 508.078125 L 3577.511719 801.171875 "/>
<path fill-rule="nonzero" fill="rgb(73.046875%, 73.046875%, 73.046875%)" fill-opacity="1" d="M 2433.558594 1619.578125 L 2449.761719 1647.160156 L 2394.75 1679.511719 L 2378.550781 1651.988281 L 1978.320312 972.539062 L 1962.070312 945.121094 L 2017.070312 912.609375 L 2033.269531 940.191406 L 2433.558594 1619.578125 "/>
<path fill-rule="nonzero" fill="rgb(73.046875%, 73.046875%, 73.046875%)" fill-opacity="1" d="M 3785.03125 1366.320312 L 3807 1343.238281 L 3853.230469 1387.230469 L 3831.25 1410.359375 L 3387.769531 1876.828125 L 3365.800781 1900.019531 L 3319.589844 1856.019531 L 3341.550781 1832.871094 L 3785.03125 1366.320312 "/>
<path fill-rule="nonzero" fill="rgb(73.046875%, 73.046875%, 73.046875%)" fill-opacity="1" d="M 722.769531 2002.25 L 705.988281 2029.390625 L 651.613281 1996.050781 L 668.394531 1968.78125 L 1273.410156 985.621094 L 1290.191406 958.289062 L 1344.558594 991.808594 L 1327.78125 1018.96875 L 722.769531 2002.25 "/>
<path fill-rule="nonzero" fill="rgb(0%, 0%, 0%)" fill-opacity="1" d="M 3452.621094 2834.261719 L 2548.328125 3220.511719 L 1901.5 2479.878906 L 2406.03125 1635.828125 L 3364.691406 1854.859375 L 3452.621094 2834.261719 "/>
<path fill-rule="nonzero" fill="rgb(0%, 0%, 0%)" fill-opacity="1" d="M 1633.359375 4397.289062 L 1514.191406 4069.589844 L 2333.449219 4009.972656 L 2891.5 4367.480469 L 2601.589844 4576.023438 "/>
<path fill-rule="nonzero" fill="rgb(0%, 0%, 0%)" fill-opacity="1" d="M 516.195312 3146.03125 L 903.453125 3414.171875 L 1067.359375 2624.660156 L 739.601562 1879.890625 L 411.90625 2222.480469 "/>
<path fill-rule="nonzero" fill="rgb(0%, 0%, 0%)" fill-opacity="1" d="M 1275.851562 807.410156 L 1216.28125 1135.121094 L 2005.738281 956.398438 L 2556.910156 569.070312 L 2501.328125 425.550781 "/>
<path fill-rule="nonzero" fill="rgb(0%, 0%, 0%)" fill-opacity="1" d="M 3689 792.539062 L 3420.851562 777.609375 L 3808.109375 1388.339844 L 4374.160156 1820.339844 L 4374.160156 1537.308594 "/>
<path fill-rule="nonzero" fill="rgb(0%, 0%, 0%)" fill-opacity="1" d="M 4508.269531 3041.789062 L 4463.53125 2728.960938 L 4016.710938 3235.398438 L 3763.441406 3965.289062 L 4016.710938 3965.289062 "/>
<path fill-rule="evenodd" fill="rgb(0%, 0%, 0%)" fill-opacity="1" d="M 344.085938 2500.789062 C 344.085938 2354.929688 358.75 2209.449219 387.914062 2066.570312 C 416.402344 1927.710938 458.539062 1792.070312 513.699219 1661.671875 C 622.230469 1405.539062 779.203125 1172.75 975.988281 976.089844 C 1172.621094 779.351562 1405.390625 622.378906 1661.519531 513.851562 C 1791.96875 458.640625 1927.609375 416.5 2066.308594 388.070312 C 2209.25 358.898438 2354.839844 344.179688 2500.691406 344.179688 C 2646.488281 344.179688 2792.078125 358.898438 2935.019531 388.070312 C 3073.78125 416.5 3209.359375 458.640625 3339.808594 513.851562 C 3595.929688 622.378906 3828.710938 779.351562 4025.339844 976.089844 C 4222.109375 1172.75 4379.078125 1405.539062 4487.609375 1661.671875 C 4542.769531 1792.070312 4584.921875 1927.710938 4613.398438 2066.460938 C 4642.578125 2209.398438 4657.300781 2354.929688 4657.300781 2500.789062 C 4657.300781 2646.628906 4642.578125 2792.230469 4613.398438 2935.171875 C 4584.921875 3073.871094 4542.769531 3209.511719 4487.609375 3339.960938 C 4379.078125 3596.078125 4222.109375 3828.808594 4025.339844 4025.488281 C 3828.710938 4222.210938 3595.929688 4379.179688 3339.808594 4487.765625 C 3209.359375 4542.925781 3073.78125 4585.074219 2935.019531 4613.496094 C 2792.078125 4642.730469 2646.488281 4657.394531 2500.691406 4657.394531 C 2354.839844 4657.394531 2209.25 4642.730469 2066.308594 4613.496094 C 1927.609375 4585.074219 1791.96875 4542.925781 1661.519531 4487.765625 C 1405.390625 4379.179688 1172.621094 4222.210938 975.988281 4025.488281 C 779.203125 3828.808594 622.230469 3596.078125 513.699219 3339.960938 C 458.539062 3209.511719 416.402344 3073.871094 387.914062 2935.171875 C 358.75 2792.230469 344.085938 2646.628906 344.085938 2500.789062 Z M 526.46875 2500.789062 C 526.46875 2367.160156 539.910156 2233.910156 566.597656 2103.039062 C 592.644531 1976.140625 631.175781 1852.089844 681.742188 1732.828125 C 781.058594 1498.289062 924.785156 1285.148438 1105.058594 1105.148438 C 1285 924.941406 1498.140625 781.210938 1732.679688 681.839844 C 1851.941406 631.328125 1976.050781 592.75 2102.890625 566.75 C 2233.75 540.011719 2367.058594 526.621094 2500.691406 526.621094 C 2634.308594 526.621094 2767.558594 540.011719 2898.429688 566.75 C 3025.339844 592.75 3149.371094 631.328125 3268.648438 681.839844 C 3503.171875 781.210938 3716.320312 924.941406 3896.308594 1105.148438 C 4076.53125 1285.148438 4220.269531 1498.289062 4319.589844 1732.828125 C 4370.140625 1852.089844 4408.738281 1976.140625 4434.730469 2103.039062 C 4461.460938 2233.910156 4474.859375 2367.160156 4474.859375 2500.789062 C 4474.859375 2634.410156 4461.460938 2767.660156 4434.730469 2898.578125 C 4408.738281 3025.429688 4370.140625 3149.46875 4319.589844 3268.800781 C 4220.269531 3503.269531 4076.53125 3716.46875 3896.308594 3896.410156 C 3716.320312 4076.679688 3503.171875 4220.421875 3268.648438 4319.734375 C 3149.371094 4370.289062 3025.339844 4408.832031 2898.429688 4434.828125 C 2767.558594 4461.566406 2634.308594 4474.960938 2500.691406 4474.960938 C 2367.058594 4474.960938 2233.75 4461.566406 2102.890625 4434.828125 C 1976.050781 4408.832031 1851.941406 4370.289062 1732.679688 4319.734375 C 1498.140625 4220.421875 1285 4076.679688 1105.058594 3896.410156 C 924.785156 3716.46875 781.058594 3503.269531 681.742188 3268.800781 C 631.175781 3149.46875 592.644531 3025.429688 566.597656 2898.578125 C 539.910156 2767.660156 526.46875 2634.410156 526.46875 2500.789062 "/>
</svg>
